<?xml version="1.0" encoding="utf-8" ?>
<svg baseProfile="full" height="1024" version="1.1" width="1024" xmlns="http://www.w3.org/2000/svg" xmlns:ev="http://www.w3.org/2001/xml-events" xmlns:xlink="http://www.w3.org/1999/xlink"><defs /><polygon fill="currentColor" points="578.0,121.0 577.0,122.0 568.0,122.0 567.0,123.0 562.0,123.0 561.0,124.0 558.0,124.0 557.0,125.0 554.0,125.0 553.0,126.0 551.0,126.0 550.0,127.0 548.0,127.0 547.0,128.0 546.0,128.0 545.0,129.0 543.0,129.0 542.0,130.0 541.0,130.0 540.0,131.0 539.0,131.0 538.0,132.0 537.0,132.0 535.0,134.0 534.0,134.0 533.0,135.0 532.0,135.0 530.0,137.0 529.0,137.0 526.0,140.0 525.0,140.0 519.0,146.0 518.0,146.0 514.0,150.0 514.0,151.0 509.0,156.0 509.0,157.0 507.0,159.0 507.0,160.0 504.0,163.0 504.0,164.0 503.0,165.0 503.0,166.0 502.0,167.0 502.0,168.0 500.0,170.0 500.0,171.0 499.0,172.0 499.0,173.0 498.0,174.0 498.0,175.0 497.0,176.0 497.0,177.0 496.0,178.0 496.0,180.0 495.0,181.0 495.0,182.0 494.0,183.0 494.0,185.0 493.0,186.0 493.0,188.0 492.0,189.0 492.0,192.0 491.0,193.0 491.0,196.0 490.0,197.0 490.0,202.0 489.0,203.0 489.0,230.0 490.0,231.0 490.0,237.0 491.0,238.0 491.0,241.0 492.0,242.0 492.0,245.0 493.0,246.0 493.0,248.0 494.0,249.0 494.0,251.0 495.0,252.0 495.0,254.0 496.0,255.0 496.0,256.0 497.0,257.0 497.0,259.0 498.0,260.0 498.0,261.0 499.0,262.0 499.0,263.0 500.0,264.0 500.0,265.0 501.0,266.0 501.0,267.0 502.0,268.0 502.0,269.0 504.0,271.0 504.0,272.0 506.0,274.0 506.0,275.0 508.0,277.0 508.0,278.0 509.0,279.0 509.0,280.0 510.0,281.0 510.0,284.0 511.0,285.0 511.0,288.0 510.0,289.0 510.0,291.0 509.0,292.0 509.0,293.0 503.0,299.0 501.0,299.0 500.0,300.0 484.0,300.0 483.0,299.0 482.0,300.0 481.0,299.0 446.0,299.0 445.0,298.0 421.0,298.0 420.0,297.0 399.0,297.0 398.0,296.0 380.0,296.0 379.0,295.0 363.0,295.0 362.0,294.0 348.0,294.0 347.0,293.0 335.0,293.0 334.0,292.0 322.0,292.0 321.0,291.0 310.0,291.0 309.0,290.0 303.0,290.0 302.0,291.0 300.0,291.0 299.0,292.0 298.0,292.0 296.0,294.0 295.0,294.0 294.0,295.0 294.0,296.0 292.0,298.0 292.0,299.0 291.0,300.0 291.0,302.0 290.0,303.0 290.0,351.0 289.0,352.0 289.0,410.0 288.0,411.0 288.0,470.0 287.0,471.0 287.0,475.0 286.0,476.0 286.0,477.0 282.0,481.0 281.0,481.0 280.0,482.0 278.0,482.0 277.0,483.0 276.0,482.0 273.0,482.0 272.0,481.0 271.0,481.0 269.0,479.0 268.0,479.0 266.0,477.0 265.0,477.0 263.0,475.0 262.0,475.0 261.0,474.0 260.0,474.0 259.0,473.0 258.0,473.0 256.0,471.0 255.0,471.0 254.0,470.0 252.0,470.0 251.0,469.0 250.0,469.0 249.0,468.0 247.0,468.0 246.0,467.0 244.0,467.0 243.0,466.0 241.0,466.0 240.0,465.0 236.0,465.0 235.0,464.0 231.0,464.0 230.0,463.0 208.0,463.0 207.0,464.0 202.0,464.0 201.0,465.0 198.0,465.0 197.0,466.0 195.0,466.0 194.0,467.0 192.0,467.0 191.0,468.0 190.0,468.0 189.0,469.0 187.0,469.0 186.0,470.0 185.0,470.0 184.0,471.0 183.0,471.0 182.0,472.0 181.0,472.0 180.0,473.0 179.0,473.0 177.0,475.0 176.0,475.0 174.0,477.0 173.0,477.0 171.0,479.0 170.0,479.0 166.0,483.0 165.0,483.0 157.0,491.0 157.0,492.0 153.0,496.0 153.0,497.0 151.0,499.0 151.0,500.0 149.0,502.0 149.0,503.0 147.0,505.0 147.0,506.0 146.0,507.0 146.0,508.0 145.0,509.0 145.0,510.0 144.0,511.0 144.0,512.0 143.0,513.0 143.0,515.0 142.0,516.0 142.0,518.0 141.0,519.0 141.0,520.0 140.0,521.0 140.0,524.0 139.0,525.0 139.0,528.0 138.0,529.0 138.0,532.0 137.0,533.0 137.0,539.0 136.0,540.0 136.0,558.0 137.0,559.0 137.0,566.0 138.0,567.0 138.0,571.0 139.0,572.0 139.0,575.0 140.0,576.0 140.0,578.0 141.0,579.0 141.0,581.0 142.0,582.0 142.0,584.0 143.0,585.0 143.0,586.0 144.0,587.0 144.0,588.0 145.0,589.0 145.0,590.0 146.0,591.0 146.0,592.0 147.0,593.0 147.0,594.0 149.0,596.0 149.0,597.0 150.0,598.0 150.0,599.0 153.0,602.0 153.0,603.0 156.0,606.0 156.0,607.0 167.0,618.0 168.0,618.0 170.0,620.0 171.0,620.0 173.0,622.0 174.0,622.0 176.0,624.0 177.0,624.0 178.0,625.0 179.0,625.0 181.0,627.0 182.0,627.0 183.0,628.0 184.0,628.0 185.0,629.0 187.0,629.0 188.0,630.0 189.0,630.0 190.0,631.0 192.0,631.0 193.0,632.0 195.0,632.0 196.0,633.0 199.0,633.0 200.0,634.0 203.0,634.0 204.0,635.0 210.0,635.0 211.0,636.0 229.0,636.0 230.0,635.0 235.0,635.0 236.0,634.0 240.0,634.0 241.0,633.0 243.0,633.0 244.0,632.0 246.0,632.0 247.0,631.0 249.0,631.0 250.0,630.0 251.0,630.0 252.0,629.0 253.0,629.0 254.0,628.0 255.0,628.0 256.0,627.0 257.0,627.0 258.0,626.0 259.0,626.0 260.0,625.0 261.0,625.0 263.0,623.0 264.0,623.0 267.0,620.0 268.0,620.0 270.0,618.0 271.0,618.0 272.0,617.0 273.0,617.0 274.0,616.0 278.0,616.0 279.0,617.0 281.0,617.0 282.0,618.0 283.0,618.0 286.0,621.0 286.0,622.0 287.0,623.0 287.0,625.0 288.0,626.0 288.0,672.0 289.0,673.0 289.0,774.0 290.0,775.0 290.0,807.0 291.0,808.0 291.0,810.0 293.0,812.0 293.0,813.0 297.0,817.0 298.0,817.0 299.0,818.0 301.0,818.0 302.0,819.0 306.0,819.0 307.0,820.0 310.0,820.0 311.0,821.0 316.0,821.0 317.0,822.0 321.0,822.0 322.0,823.0 326.0,823.0 327.0,824.0 332.0,824.0 333.0,825.0 338.0,825.0 339.0,826.0 345.0,826.0 346.0,827.0 353.0,827.0 354.0,828.0 360.0,828.0 361.0,829.0 369.0,829.0 370.0,830.0 378.0,830.0 379.0,831.0 389.0,831.0 390.0,832.0 400.0,832.0 401.0,833.0 414.0,833.0 415.0,834.0 434.0,834.0 435.0,835.0 490.0,835.0 491.0,834.0 495.0,834.0 496.0,833.0 498.0,833.0 499.0,832.0 500.0,832.0 501.0,831.0 502.0,831.0 503.0,830.0 504.0,830.0 505.0,829.0 506.0,829.0 508.0,827.0 509.0,827.0 512.0,824.0 513.0,824.0 516.0,821.0 516.0,820.0 520.0,816.0 520.0,815.0 522.0,813.0 522.0,812.0 523.0,811.0 523.0,810.0 524.0,809.0 524.0,808.0 525.0,807.0 525.0,805.0 526.0,804.0 526.0,802.0 527.0,801.0 527.0,798.0 528.0,797.0 528.0,782.0 527.0,781.0 527.0,778.0 526.0,777.0 526.0,775.0 525.0,774.0 525.0,772.0 524.0,771.0 524.0,770.0 523.0,769.0 523.0,768.0 522.0,767.0 522.0,766.0 521.0,765.0 521.0,764.0 519.0,762.0 519.0,761.0 516.0,758.0 516.0,757.0 512.0,753.0 512.0,752.0 510.0,750.0 510.0,749.0 509.0,748.0 509.0,747.0 507.0,745.0 507.0,744.0 506.0,743.0 506.0,741.0 505.0,740.0 505.0,739.0 504.0,738.0 504.0,736.0 503.0,735.0 503.0,733.0 502.0,732.0 502.0,729.0 501.0,728.0 501.0,723.0 500.0,722.0 500.0,710.0 501.0,709.0 501.0,704.0 502.0,703.0 502.0,700.0 503.0,699.0 503.0,697.0 504.0,696.0 504.0,694.0 505.0,693.0 505.0,692.0 506.0,691.0 506.0,690.0 507.0,689.0 507.0,688.0 508.0,687.0 508.0,686.0 509.0,685.0 509.0,684.0 511.0,682.0 511.0,681.0 515.0,677.0 515.0,676.0 523.0,668.0 524.0,668.0 527.0,665.0 528.0,665.0 531.0,662.0 532.0,662.0 533.0,661.0 534.0,661.0 536.0,659.0 537.0,659.0 538.0,658.0 540.0,658.0 541.0,657.0 542.0,657.0 543.0,656.0 545.0,656.0 546.0,655.0 548.0,655.0 549.0,654.0 553.0,654.0 554.0,653.0 560.0,653.0 561.0,652.0 572.0,652.0 573.0,653.0 579.0,653.0 580.0,654.0 583.0,654.0 584.0,655.0 586.0,655.0 587.0,656.0 589.0,656.0 590.0,657.0 591.0,657.0 592.0,658.0 594.0,658.0 595.0,659.0 596.0,659.0 598.0,661.0 599.0,661.0 600.0,662.0 601.0,662.0 603.0,664.0 604.0,664.0 607.0,667.0 608.0,667.0 616.0,675.0 616.0,676.0 620.0,680.0 620.0,681.0 622.0,683.0 622.0,684.0 623.0,685.0 623.0,686.0 624.0,687.0 624.0,688.0 625.0,689.0 625.0,690.0 626.0,691.0 626.0,692.0 627.0,693.0 627.0,695.0 628.0,696.0 628.0,697.0 629.0,698.0 629.0,701.0 630.0,702.0 630.0,706.0 631.0,707.0 631.0,727.0 630.0,728.0 630.0,731.0 629.0,732.0 629.0,735.0 628.0,736.0 628.0,738.0 627.0,739.0 627.0,740.0 626.0,741.0 626.0,742.0 625.0,743.0 625.0,744.0 624.0,745.0 624.0,746.0 623.0,747.0 623.0,748.0 621.0,750.0 621.0,751.0 619.0,753.0 619.0,754.0 616.0,757.0 616.0,758.0 612.0,762.0 612.0,763.0 610.0,765.0 610.0,766.0 609.0,767.0 609.0,768.0 608.0,769.0 608.0,770.0 607.0,771.0 607.0,772.0 606.0,773.0 606.0,775.0 605.0,776.0 605.0,778.0 604.0,779.0 604.0,785.0 603.0,786.0 603.0,792.0 604.0,793.0 604.0,799.0 605.0,800.0 605.0,803.0 606.0,804.0 606.0,806.0 607.0,807.0 607.0,808.0 608.0,809.0 608.0,810.0 609.0,811.0 609.0,812.0 610.0,813.0 610.0,814.0 612.0,816.0 612.0,817.0 622.0,827.0 623.0,827.0 625.0,829.0 626.0,829.0 627.0,830.0 628.0,830.0 629.0,831.0 630.0,831.0 631.0,832.0 632.0,832.0 633.0,833.0 635.0,833.0 636.0,834.0 639.0,834.0 640.0,835.0 663.0,835.0 664.0,834.0 680.0,834.0 681.0,833.0 693.0,833.0 694.0,832.0 707.0,832.0 708.0,831.0 718.0,831.0 719.0,830.0 729.0,830.0 730.0,829.0 738.0,829.0 739.0,828.0 747.0,828.0 748.0,827.0 756.0,827.0 757.0,826.0 763.0,826.0 764.0,825.0 770.0,825.0 771.0,824.0 777.0,824.0 778.0,823.0 783.0,823.0 784.0,822.0 790.0,822.0 791.0,821.0 796.0,821.0 797.0,820.0 801.0,820.0 802.0,819.0 807.0,819.0 808.0,818.0 812.0,818.0 813.0,817.0 817.0,817.0 818.0,816.0 822.0,816.0 823.0,815.0 827.0,815.0 828.0,814.0 831.0,814.0 832.0,813.0 833.0,813.0 834.0,812.0 835.0,812.0 837.0,810.0 838.0,810.0 838.0,809.0 840.0,807.0 840.0,806.0 841.0,805.0 841.0,804.0 842.0,803.0 842.0,712.0 841.0,711.0 841.0,680.0 840.0,679.0 840.0,658.0 839.0,657.0 839.0,641.0 838.0,640.0 838.0,626.0 837.0,625.0 837.0,614.0 836.0,613.0 836.0,608.0 835.0,607.0 835.0,605.0 834.0,604.0 834.0,602.0 833.0,601.0 833.0,600.0 832.0,599.0 832.0,598.0 830.0,596.0 830.0,595.0 828.0,593.0 828.0,592.0 821.0,585.0 820.0,585.0 818.0,583.0 817.0,583.0 816.0,582.0 815.0,582.0 814.0,581.0 813.0,581.0 812.0,580.0 811.0,580.0 810.0,579.0 808.0,579.0 807.0,578.0 805.0,578.0 804.0,577.0 788.0,577.0 787.0,578.0 784.0,578.0 783.0,579.0 782.0,579.0 781.0,580.0 779.0,580.0 778.0,581.0 777.0,581.0 776.0,582.0 775.0,582.0 773.0,584.0 772.0,584.0 766.0,590.0 765.0,590.0 762.0,593.0 761.0,593.0 759.0,595.0 758.0,595.0 756.0,597.0 755.0,597.0 754.0,598.0 753.0,598.0 752.0,599.0 750.0,599.0 749.0,600.0 747.0,600.0 746.0,601.0 743.0,601.0 742.0,602.0 738.0,602.0 737.0,603.0 725.0,603.0 724.0,602.0 719.0,602.0 718.0,601.0 715.0,601.0 714.0,600.0 712.0,600.0 711.0,599.0 709.0,599.0 708.0,598.0 707.0,598.0 706.0,597.0 705.0,597.0 704.0,596.0 703.0,596.0 702.0,595.0 701.0,595.0 699.0,593.0 698.0,593.0 696.0,591.0 695.0,591.0 682.0,578.0 682.0,577.0 680.0,575.0 680.0,574.0 678.0,572.0 678.0,571.0 677.0,570.0 677.0,569.0 676.0,568.0 676.0,567.0 675.0,566.0 675.0,565.0 674.0,564.0 674.0,562.0 673.0,561.0 673.0,559.0 672.0,558.0 672.0,555.0 671.0,554.0 671.0,547.0 670.0,546.0 670.0,534.0 671.0,533.0 671.0,528.0 672.0,527.0 672.0,524.0 673.0,523.0 673.0,520.0 674.0,519.0 674.0,518.0 675.0,517.0 675.0,515.0 676.0,514.0 676.0,513.0 678.0,511.0 678.0,510.0 679.0,509.0 679.0,508.0 681.0,506.0 681.0,505.0 685.0,501.0 685.0,500.0 691.0,494.0 692.0,494.0 696.0,490.0 697.0,490.0 699.0,488.0 700.0,488.0 702.0,486.0 703.0,486.0 704.0,485.0 705.0,485.0 706.0,484.0 707.0,484.0 708.0,483.0 710.0,483.0 711.0,482.0 713.0,482.0 714.0,481.0 716.0,481.0 717.0,480.0 723.0,480.0 724.0,479.0 736.0,479.0 737.0,480.0 741.0,480.0 742.0,481.0 744.0,481.0 745.0,482.0 747.0,482.0 748.0,483.0 750.0,483.0 751.0,484.0 752.0,484.0 753.0,485.0 754.0,485.0 755.0,486.0 756.0,486.0 757.0,487.0 758.0,487.0 760.0,489.0 761.0,489.0 762.0,490.0 763.0,490.0 766.0,493.0 767.0,493.0 771.0,497.0 772.0,497.0 774.0,499.0 775.0,499.0 777.0,501.0 778.0,501.0 779.0,502.0 781.0,502.0 782.0,503.0 783.0,503.0 784.0,504.0 787.0,504.0 788.0,505.0 805.0,505.0 806.0,504.0 809.0,504.0 810.0,503.0 812.0,503.0 813.0,502.0 814.0,502.0 815.0,501.0 816.0,501.0 817.0,500.0 818.0,500.0 820.0,498.0 821.0,498.0 829.0,490.0 829.0,489.0 831.0,487.0 831.0,486.0 832.0,485.0 832.0,484.0 833.0,483.0 833.0,482.0 834.0,481.0 834.0,480.0 835.0,479.0 835.0,476.0 836.0,475.0 836.0,471.0 837.0,470.0 837.0,460.0 838.0,459.0 838.0,444.0 839.0,443.0 839.0,422.0 840.0,421.0 840.0,393.0 841.0,392.0 841.0,344.0 842.0,343.0 842.0,303.0 841.0,302.0 841.0,300.0 840.0,299.0 840.0,298.0 838.0,296.0 838.0,295.0 836.0,293.0 835.0,293.0 834.0,292.0 833.0,292.0 832.0,291.0 831.0,291.0 830.0,290.0 818.0,290.0 817.0,291.0 811.0,291.0 810.0,292.0 802.0,292.0 801.0,293.0 791.0,293.0 790.0,294.0 779.0,294.0 778.0,295.0 766.0,295.0 765.0,296.0 749.0,296.0 748.0,297.0 729.0,297.0 728.0,298.0 702.0,298.0 701.0,299.0 671.0,299.0 670.0,300.0 664.0,300.0 663.0,299.0 662.0,299.0 661.0,298.0 660.0,298.0 655.0,293.0 655.0,292.0 654.0,291.0 654.0,282.0 655.0,281.0 655.0,280.0 656.0,279.0 656.0,278.0 658.0,276.0 658.0,275.0 660.0,273.0 660.0,272.0 661.0,271.0 661.0,270.0 663.0,268.0 663.0,267.0 664.0,266.0 664.0,265.0 665.0,264.0 665.0,263.0 666.0,262.0 666.0,261.0 667.0,260.0 667.0,258.0 668.0,257.0 668.0,256.0 669.0,255.0 669.0,253.0 670.0,252.0 670.0,250.0 671.0,249.0 671.0,247.0 672.0,246.0 672.0,243.0 673.0,242.0 673.0,239.0 674.0,238.0 674.0,233.0 675.0,232.0 675.0,222.0 676.0,221.0 676.0,216.0 675.0,215.0 676.0,214.0 675.0,213.0 675.0,203.0 674.0,202.0 674.0,197.0 673.0,196.0 673.0,193.0 672.0,192.0 672.0,189.0 671.0,188.0 671.0,186.0 670.0,185.0 670.0,183.0 669.0,182.0 669.0,181.0 668.0,180.0 668.0,178.0 667.0,177.0 667.0,176.0 666.0,175.0 666.0,174.0 665.0,173.0 665.0,172.0 664.0,171.0 664.0,170.0 663.0,169.0 663.0,168.0 661.0,166.0 661.0,165.0 660.0,164.0 660.0,163.0 658.0,161.0 658.0,160.0 655.0,157.0 655.0,156.0 641.0,142.0 640.0,142.0 637.0,139.0 636.0,139.0 634.0,137.0 633.0,137.0 631.0,135.0 630.0,135.0 628.0,133.0 627.0,133.0 626.0,132.0 625.0,132.0 624.0,131.0 623.0,131.0 622.0,130.0 621.0,130.0 620.0,129.0 618.0,129.0 617.0,128.0 616.0,128.0 615.0,127.0 613.0,127.0 612.0,126.0 610.0,126.0 609.0,125.0 606.0,125.0 605.0,124.0 602.0,124.0 601.0,123.0 596.0,123.0 595.0,122.0 587.0,122.0 586.0,121.0" /></svg>